<svg width="44" height="44" viewBox="0 0 44 44" fill="none" xmlns="http://www.w3.org/2000/svg">
<path d="M16.94 15C16.9397 15.5305 16.7288 16.0391 16.3535 16.4139C15.9782 16.7888 15.4694 16.9993 14.939 16.999C14.4086 16.9988 13.9 16.7878 13.5251 16.4125C13.1502 16.0373 12.9397 15.5285 12.94 14.998C12.9403 14.4676 13.1512 13.959 13.5265 13.5841C13.9018 13.2092 14.4106 12.9988 14.941 12.999C15.4714 12.9993 15.98 13.2103 16.3549 13.5855C16.7298 13.9608 16.9403 14.4696 16.94 15ZM17 18.48H13V31H17V18.48ZM23.32 18.48H19.34V31H23.28V24.43C23.28 20.77 28.05 20.43 28.05 24.43V31H32V23.07C32 16.9 24.94 17.13 23.28 20.16L23.32 18.48Z" fill="#101010"/>
</svg>
